<svg width="30" height="30" viewBox="0 0 30 30" fill="none" xmlns="http://www.w3.org/2000/svg">
<path d="M12 26.622V21.6C12 19.6761 13.4922 18.1614 15.7 17.2981C14.3146 16.782 12.8152 16.5 11.25 16.5C8.41519 16.5 5.79648 17.4252 3.67929 18.99C4.99798 22.7316 8.11909 25.623 12 26.622ZM25.3191 21.1288C24.7293 20.3289 22.7562 19.5 20.25 19.5C17.2409 19.5 15 20.695 15 21.6V27C19.3882 27 23.2265 24.6444 25.3191 21.1288ZM11.325 14.25C13.1889 14.25 14.7 12.7389 14.7 10.875C14.7 9.01104 13.1889 7.5 11.325 7.5C9.46104 7.5 7.95 9.01104 7.95 10.875C7.95 12.7389 9.46104 14.25 11.325 14.25ZM20.25 15.75C21.9069 15.75 23.25 14.4069 23.25 12.75C23.25 11.0931 21.9069 9.75 20.25 9.75C18.5931 9.75 17.25 11.0931 17.25 12.75C17.25 14.4069 18.5931 15.75 20.25 15.75ZM15 30C6.71572 30 0 23.2842 0 15C0 6.71572 6.71572 0 15 0C23.2842 0 30 6.71572 30 15C30 23.2842 23.2842 30 15 30Z" fill="#F5F5F5"/>
</svg>

