<svg width="591" height="146" viewBox="0 0 591 146" fill="none" xmlns="http://www.w3.org/2000/svg">
<path d="M418.2 95.9062V85.36C418.2 81.3198 421.334 78.1389 425.97 76.3261C423.061 75.2422 419.912 74.65 416.625 74.65C410.672 74.65 405.173 76.5929 400.727 79.879C403.496 87.7364 410.05 93.8083 418.2 95.9062ZM446.17 84.3706C444.932 82.6907 440.788 80.95 435.525 80.95C429.206 80.95 424.5 83.4596 424.5 85.36V96.7C433.715 96.7 441.776 91.7532 446.17 84.3706ZM416.783 69.925C420.697 69.925 423.87 66.7517 423.87 62.8375C423.87 58.9232 420.697 55.75 416.783 55.75C412.868 55.75 409.695 58.9232 409.695 62.8375C409.695 66.7517 412.868 69.925 416.783 69.925ZM435.525 73.075C439.004 73.075 441.825 70.2545 441.825 66.775C441.825 63.2956 439.004 60.475 435.525 60.475C432.046 60.475 429.225 63.2956 429.225 66.775C429.225 70.2545 432.046 73.075 435.525 73.075ZM424.5 103C407.103 103 393 88.8968 393 71.5C393 54.103 407.103 40 424.5 40C441.897 40 456 54.103 456 71.5C456 88.8968 441.897 103 424.5 103Z" fill="#536DFE"/>
<path d="M5.25 104.344V102.938C5.25 102.469 5.26563 101.734 5.29688 100.734C5.32813 99.7031 5.34375 98.875 5.34375 98.25V95.8125C5.34375 88.1875 5.84375 84.375 6.84375 84.375H26.0625C29.0625 84.375 30.5625 84.8125 30.5625 85.6875C30.6875 91.6875 30.75 96.2812 30.75 99.4688V101.062C30.75 101.281 30.7656 101.625 30.7969 102.094C30.8281 102.531 30.8438 102.875 30.8438 103.125C30.8438 104.875 30.5 105.75 29.8125 105.75H6.75L5.25 104.344ZM35.7188 57.5625V40.6875H90.2812C90.7812 40.7812 91.0938 40.9844 91.2188 41.2969C91.3438 41.5781 91.4062 42 91.4062 42.5625V57.5625C91.3438 58.3125 90.9062 58.6875 90.0938 58.6875H76.7812V101.812C76.7812 101.844 76.7656 101.922 76.7344 102.047C76.7031 102.172 76.6875 102.25 76.6875 102.281C76.6875 102.312 76.6719 102.375 76.6406 102.469C76.6094 102.562 76.5781 102.625 76.5469 102.656C76.5156 102.688 76.4844 102.75 76.4531 102.844C76.4219 102.906 76.375 102.953 76.3125 102.984C76.2812 102.984 76.2188 103.016 76.125 103.078C76.0625 103.109 75.9844 103.141 75.8906 103.172C75.8281 103.203 75.7344 103.234 75.6094 103.266C75.5156 103.266 75.4062 103.281 75.2812 103.312H72.2812C68.2812 103.312 66.2812 103.188 66.2812 102.938C66.0312 102.938 65.6562 102.953 65.1562 102.984C64.6562 103.016 64.2812 103.031 64.0312 103.031H60.2812C59.5625 103.031 58.5312 103.047 57.1875 103.078C55.875 103.109 54.8438 103.125 54.0938 103.125H51.4688L49.5938 101.812V91.6875C49.625 89.875 49.75 86 49.9688 80.0625C50.2188 74.125 50.3438 69.4375 50.3438 66V64.7812C50.3438 64.5312 50.3594 64.1406 50.3906 63.6094C50.4219 63.0781 50.4375 62.6875 50.4375 62.4375C50.4375 62.1562 50.4219 61.5938 50.3906 60.75C50.3594 59.875 50.3438 59.3125 50.3438 59.0625H38.625C37.9375 59.0625 37.2812 58.9531 36.6562 58.7344C36.0312 58.4844 35.7188 58.0938 35.7188 57.5625ZM94.9688 44.4375C94.9688 42.5625 95.0469 41.4688 95.2031 41.1562C95.4844 40.7188 95.9375 40.5 96.5625 40.5H97.6875C98.1875 40.5 98.5312 40.5312 98.7188 40.5938H101.156C104.312 40.5938 109.078 40.5156 115.453 40.3594C121.859 40.2031 126.656 40.125 129.844 40.125H142.312C143.125 40.2188 143.531 40.625 143.531 41.3438V57C143.5 57.1875 143.438 57.3594 143.344 57.5156C143.281 57.6406 143.219 57.7344 143.156 57.7969C143.125 57.8281 142.984 57.9375 142.734 58.125C142.484 58.2812 142.312 58.4062 142.219 58.5H120.469V64.3125H122.531C124.344 64.3125 127.109 64.25 130.828 64.125C134.547 64 137.406 63.9375 139.406 63.9375C140.281 63.9375 140.875 64.1094 141.188 64.4531C141.5 64.7969 141.656 65.2812 141.656 65.9062C141.656 66.0625 141.625 66.3281 141.562 66.7031C141.5 67.0781 141.469 67.3438 141.469 67.5V69.2812C141.469 69.4062 141.484 69.6719 141.516 70.0781C141.547 70.4531 141.562 70.7812 141.562 71.0625V72.375C141.562 73.0625 141.594 73.75 141.656 74.4375C141.719 75.125 141.75 75.7188 141.75 76.2188V77.4375C141.594 77.8125 141.469 78.0625 141.375 78.1875C141.281 78.3125 141.125 78.375 140.906 78.375V78.2812C139.75 78.2812 137.75 78.3594 134.906 78.5156C132.094 78.6719 129.844 78.75 128.156 78.75H120.656V84.75C120.906 84.75 121.281 84.7656 121.781 84.7969C122.281 84.8281 122.656 84.8438 122.906 84.8438C124.312 84.8438 126.391 84.7969 129.141 84.7031C131.891 84.6094 133.875 84.5625 135.094 84.5625H141.094C142.719 84.5625 143.75 84.75 144.188 85.125C144.344 85.3125 144.469 85.5 144.562 85.6875V100.688C144.562 101.344 144.438 101.844 144.188 102.188C143.938 102.531 143.469 102.719 142.781 102.75H96.375L94.9688 101.531V44.4375ZM171.562 93.375C171.344 94.0938 171.125 95.0469 170.906 96.2344C170.719 97.3906 170.531 98.3125 170.344 99C170.188 99.6562 169.906 100.359 169.5 101.109C169.094 101.828 168.469 102.359 167.625 102.703C166.812 103.047 165.75 103.219 164.438 103.219H144.188V101.625C145.844 96.6562 148.25 89.0312 151.406 78.75C154.594 68.4688 157.062 60.6875 158.812 55.4062V55.5C159.875 52.4688 161.438 47.7188 163.5 41.25C163.531 41.1875 163.578 41.1094 163.641 41.0156C163.922 40.5469 164.188 40.1875 164.438 39.9375L189.75 40.125C194.062 40.125 196.438 40.5 196.875 41.25V42.4688C196.938 42.75 197.281 43.4688 197.906 44.625C200.938 53.9062 203.156 60.6562 204.562 64.875V65.4375C204.688 66.3438 204.969 67.375 205.406 68.5312C205.844 69.6875 206.359 70.9375 206.953 72.2812C207.578 73.5938 208.016 74.625 208.266 75.375L210.141 82.125C211.234 85.75 212.844 90.5938 214.969 96.6562V96.5625V97.5C215.062 97.9375 215.297 98.5312 215.672 99.2812C216.047 100.031 216.281 100.562 216.375 100.875C216.375 101.75 216.188 102.312 215.812 102.562C215.469 102.812 214.781 102.938 213.75 102.938H192C191.469 102.875 191.125 102.828 190.969 102.797C190.812 102.766 190.562 102.703 190.219 102.609C189.906 102.516 189.672 102.391 189.516 102.234C189.391 102.078 189.312 101.875 189.281 101.625L187.5 94.5C187.375 93.9062 187.25 93.5781 187.125 93.5156C187 93.4219 186.625 93.375 186 93.375H171.562ZM173.812 76.6875V76.875V76.6875ZM184.125 71.0625C183.938 70.1875 183.656 68.7812 183.281 66.8438C182.938 64.875 182.594 63.1719 182.25 61.7344C181.906 60.2656 181.531 58.9062 181.125 57.6562V55.4062C180.875 54.75 180.438 54.2812 179.812 54V54.0938C179.062 54.25 178.312 56.3438 177.562 60.375V62.625C177.5 62.8438 177.359 63.0469 177.141 63.2344C176.922 63.4219 176.812 63.5312 176.812 63.5625C175.781 68.125 174.938 71.8125 174.281 74.625C174.281 74.9375 174.203 75.4844 174.047 76.2656C173.891 77.0469 173.812 77.5 173.812 77.625H185.438C185.438 76.8125 185.156 75.3438 184.594 73.2188V72.1875C184.562 72.0938 184.469 71.9219 184.312 71.6719C184.188 71.3906 184.125 71.1875 184.125 71.0625ZM253.594 40.6875C253.812 40.625 254.156 40.5781 254.625 40.5469C255.125 40.4844 255.438 40.4375 255.562 40.4062L261.141 68.9531L268.453 40.3125H301.406C302.281 40.3125 302.719 42.1562 302.719 45.8438V101.062C302.656 101.562 302.516 101.969 302.297 102.281C302.078 102.594 301.75 102.812 301.312 102.938C300.906 103.031 300.578 103.094 300.328 103.125C300.109 103.125 299.719 103.125 299.156 103.125C297.188 103.125 294.188 103.156 290.156 103.219C286.156 103.281 283.156 103.312 281.156 103.312C279.594 102.344 278.812 98.75 278.812 92.5312C278.812 90.9688 278.844 88.9375 278.906 86.4375C278.969 83.9062 279 82.0312 279 80.8125V76.6875C279 76.4688 278.984 76.125 278.953 75.6562C278.922 75.1562 278.906 74.7812 278.906 74.5312C278.906 73.4688 278.969 71.75 279.094 69.375V72.9375C278.656 74.7812 277.812 77.5938 276.562 81.375C275.312 85.1562 274.469 87.9688 274.031 89.8125L271.219 101.812C270.719 102.688 269.156 103.125 266.531 103.125C265.25 103.125 263.578 103.094 261.516 103.031C259.484 102.969 257.938 102.938 256.875 102.938C256.562 102.938 256.031 102.953 255.281 102.984C254.531 103.016 254.062 103.031 253.875 103.031C252.875 103.031 252.156 102.906 251.719 102.656C251.281 102.406 250.969 101.906 250.781 101.156C247.844 88.125 245.812 78.9062 244.688 73.5L243 65.4375C242.562 74.5312 242.344 84.1562 242.344 94.3125V102.562H220.219C220.219 102.375 220.266 101.969 220.359 101.344C220.453 100.719 220.5 100.375 220.5 100.312C220.25 94.3125 220.125 86.9062 220.125 78.0938C220.125 75.4375 220.109 71.9062 220.078 67.5C220.047 63.0625 220.031 60 220.031 58.3125V41.7188C220.031 41.3125 220.094 41.0156 220.219 40.8281C220.344 40.6094 220.656 40.3125 221.156 39.9375H225.469C227.031 39.9375 228.156 39.9062 228.844 39.8438C232 39.8438 235.828 39.9844 240.328 40.2656C244.859 40.5469 247.688 40.6875 248.812 40.6875H253.594ZM279.094 69.0938V69V69.0938ZM333.844 71.9531C334.406 69.6719 334.922 67.0938 335.391 64.2188C335.891 61.3438 336.297 58.7812 336.609 56.5312C336.922 54.2812 337.281 51.5312 337.688 48.2812C338.125 45 338.484 42.4062 338.766 40.5H365.766C365.859 41.25 365.953 42.0625 366.047 42.9375C366.172 43.7812 366.281 44.5938 366.375 45.375C366.469 46.1562 366.562 46.9844 366.656 47.8594C366.781 48.7344 366.891 49.5781 366.984 50.3906C367.078 51.1719 367.172 52 367.266 52.875C367.359 53.75 367.453 54.5781 367.547 55.3594C367.672 56.1406 367.781 56.9531 367.875 57.7969C368 58.6406 368.109 59.4375 368.203 60.1875L370.219 73.4531L374.016 41.2031C374.078 41.0156 374.188 40.8594 374.344 40.7344C374.531 40.6094 374.781 40.5156 375.094 40.4531C375.406 40.3594 375.703 40.2969 375.984 40.2656C376.266 40.2031 376.641 40.1719 377.109 40.1719C377.609 40.1406 378 40.125 378.281 40.125C378.562 40.125 378.969 40.125 379.5 40.125C380.031 40.125 380.391 40.125 380.578 40.125C381.578 40.125 383.016 40.1562 384.891 40.2188C386.766 40.2812 388.203 40.3125 389.203 40.3125C389.328 40.3125 389.656 40.2969 390.188 40.2656C390.719 40.2344 391.141 40.2188 391.453 40.2188C392.641 40.2188 393.328 40.3125 393.516 40.5C393.672 40.5 393.938 40.4844 394.312 40.4531C394.719 40.4219 395.016 40.4062 395.203 40.4062C395.484 40.4062 395.719 40.4219 395.906 40.4531C396.125 40.4844 396.344 40.5625 396.562 40.6875C396.781 40.7812 396.969 40.9062 397.125 41.0625C397.312 41.2188 397.469 41.4375 397.594 41.7188C397.75 42 397.859 42.3438 397.922 42.75L384.281 102.562H356.859L351.656 72.4688L348.422 97.3125C348.391 97.5 348.297 98.0156 348.141 98.8594C348.016 99.7031 347.906 100.281 347.812 100.594C347.75 100.906 347.625 101.328 347.438 101.859C347.25 102.391 347.016 102.766 346.734 102.984C346.453 103.203 346.109 103.312 345.703 103.312C344.547 103.312 342.828 103.266 340.547 103.172C338.266 103.078 336.547 103.031 335.391 103.031C333.391 103.031 330.766 103.078 327.516 103.172C324.266 103.266 321.891 103.312 320.391 103.312H318.891L306.422 45.0469L306.703 41.7188C306.703 41.6562 306.703 41.5312 306.703 41.3438C306.703 41.1562 306.703 41.0469 306.703 41.0156C306.703 40.9531 306.719 40.8594 306.75 40.7344C306.781 40.5781 306.828 40.4688 306.891 40.4062C306.953 40.3438 307.047 40.2656 307.172 40.1719C307.297 40.0781 307.453 40 307.641 39.9375C308.516 40.0625 309.172 40.125 309.609 40.125H312.703C313.328 40.125 313.641 40.0625 313.641 39.9375H315.234C315.359 39.9375 315.578 39.9219 315.891 39.8906C316.234 39.8594 316.547 39.8438 316.828 39.8438H318.141C318.484 39.8438 318.984 39.8281 319.641 39.7969C320.297 39.7656 320.797 39.75 321.141 39.75H324.234V39.9375H327.328C328.328 39.9375 329.078 40.0938 329.578 40.4062C330.109 40.6875 330.391 41.2812 330.422 42.1875L333.844 71.9531ZM459 40.5H467.719C470.406 40.5 474.703 40.4375 480.609 40.3125C486.516 40.1875 490.938 40.125 493.875 40.125C496.406 40.125 498.766 40.2656 500.953 40.5469C503.172 40.8281 505.344 41.3438 507.469 42.0938C509.625 42.8438 511.453 43.7969 512.953 44.9531C514.484 46.1094 515.719 47.6406 516.656 49.5469C517.594 51.4219 518.062 53.5938 518.062 56.0625C518.062 59.4688 517.266 62.375 515.672 64.7812C514.078 67.1875 511.625 69.2188 508.312 70.875C509.625 71.4375 510.766 72.1719 511.734 73.0781C512.703 73.9844 513.438 74.7656 513.938 75.4219C514.469 76.0781 514.969 77.1875 515.438 78.75C515.938 80.2812 516.234 81.2969 516.328 81.7969C516.422 82.2656 516.625 83.4531 516.938 85.3594C517.031 85.7969 517.094 86.125 517.125 86.3438C517.25 87.5938 517.781 89.8906 518.719 93.2344C519.656 96.5469 520.125 99.0938 520.125 100.875C520.125 102 519.781 102.562 519.094 102.562C517.219 102.562 514.375 102.578 510.562 102.609C506.781 102.641 503.969 102.656 502.125 102.656C501.375 102.594 500.25 102.562 498.75 102.562H495.562C494.938 102.375 494.328 101.406 493.734 99.6562C493.141 97.9062 492.719 95.9375 492.469 93.75L491.438 85.4062C491.25 84.7188 491.094 84.2344 490.969 83.9531C490.875 83.6406 490.688 83.2812 490.406 82.875C490.125 82.4375 489.734 82.1406 489.234 81.9844C488.766 81.8281 488.156 81.75 487.406 81.75H485.25V100.5C485.25 100.594 485.25 100.75 485.25 100.969C485.25 101.156 485.25 101.297 485.25 101.391C485.25 101.453 485.25 101.562 485.25 101.719C485.25 101.875 485.234 102 485.203 102.094C485.172 102.156 485.141 102.25 485.109 102.375C485.078 102.5 485.031 102.594 484.969 102.656C484.938 102.688 484.875 102.75 484.781 102.844C484.719 102.906 484.625 102.953 484.5 102.984C484.406 103.016 484.281 103.047 484.125 103.078C484 103.109 483.844 103.125 483.656 103.125H459V40.5ZM485.531 65.25C485.594 65.3125 485.688 65.4531 485.812 65.6719C485.938 65.8594 486.062 66.0156 486.188 66.1406C486.312 66.2656 486.438 66.3438 486.562 66.375C487.5 66.375 488.438 66.2812 489.375 66.0938C490.312 65.875 491.266 65.5312 492.234 65.0625C493.234 64.5938 494.031 63.875 494.625 62.9062C495.25 61.9375 495.562 60.7812 495.562 59.4375C495.562 56.1875 492.438 54.5625 486.188 54.5625C485.562 54.7188 485.25 54.9688 485.25 55.3125V57.0938C485.25 58 485.297 59.3594 485.391 61.1719C485.484 62.9844 485.531 64.3438 485.531 65.25ZM525.656 103.312C525.094 102.375 524.719 101.719 524.531 101.344V39.75H545.25C545.344 39.75 545.594 39.75 546 39.75C546.406 39.7188 546.719 39.7188 546.938 39.75C547.156 39.75 547.453 39.7656 547.828 39.7969C548.234 39.8281 548.562 39.8906 548.812 39.9844C549.062 40.0469 549.312 40.1562 549.562 40.3125C549.844 40.4375 550.062 40.625 550.219 40.875C550.406 41.125 550.531 41.4062 550.594 41.7188V62.5312C551.625 60.4688 553.062 57.5 554.906 53.625C556.781 49.75 558.156 46.9375 559.031 45.1875L561.328 40.2656L565.781 40.125C566.406 40.125 567.344 40.1562 568.594 40.2188C569.875 40.2812 570.812 40.3125 571.406 40.3125H574.969C575.219 40.3125 575.578 40.2969 576.047 40.2656C576.547 40.2344 576.906 40.2188 577.125 40.2188H579.844C579.969 40.2188 580.188 40.1875 580.5 40.125C585.562 40.125 588.094 40.5 588.094 41.25C588.094 41.6875 587.812 42.2812 587.25 43.0312C585.812 45.3125 583.391 49.4844 579.984 55.5469C576.578 61.5781 573.828 66.125 571.734 69.1875L590.062 100.781C590.062 100.812 590.062 100.922 590.062 101.109C590.062 101.297 590.062 101.422 590.062 101.484C590.062 101.547 590.047 101.656 590.016 101.812C590.016 101.938 590 102.047 589.969 102.141C589.938 102.203 589.891 102.297 589.828 102.422C589.797 102.516 589.734 102.609 589.641 102.703C589.578 102.766 589.5 102.844 589.406 102.938C586.469 102.75 582.094 102.656 576.281 102.656C575.5 102.656 574.297 102.672 572.672 102.703C571.047 102.734 569.844 102.75 569.062 102.75H562.688V101.438C562.188 100.594 561.109 98.9375 559.453 96.4688C557.797 94 556.594 92.0625 555.844 90.6562L550.594 80.625V101.438C550.156 102.688 548.438 103.312 545.438 103.312H525.656Z" fill="#536DFE"/>
</svg>
