<svg width="50" height="50" viewBox="0 0 50 50" fill="none" xmlns="http://www.w3.org/2000/svg">
<path d="M20 44.37V36C20 32.7935 22.487 30.269 26.1667 28.8302C23.8577 27.97 21.3587 27.5 18.75 27.5C14.0253 27.5 9.6608 29.042 6.13215 31.65C8.32997 37.886 13.5318 42.705 20 44.37ZM42.1985 35.2147C41.2155 33.8815 37.927 32.5 33.75 32.5C28.7348 32.5 25 34.4917 25 36V45C32.3137 45 38.7108 41.074 42.1985 35.2147ZM18.875 23.75C21.9815 23.75 24.5 21.2315 24.5 18.125C24.5 15.0184 21.9815 12.5 18.875 12.5C15.7684 12.5 13.25 15.0184 13.25 18.125C13.25 21.2315 15.7684 23.75 18.875 23.75ZM33.75 26.25C36.5115 26.25 38.75 24.0115 38.75 21.25C38.75 18.4886 36.5115 16.25 33.75 16.25C30.9885 16.25 28.75 18.4886 28.75 21.25C28.75 24.0115 30.9885 26.25 33.75 26.25ZM25 50C11.1929 50 0 38.807 0 25C0 11.1929 11.1929 0 25 0C38.807 0 50 11.1929 50 25C50 38.807 38.807 50 25 50Z" fill="#F5F5F5"/>
</svg>

